<svg width="84" height="84" viewBox="0 0 84 84" fill="none" xmlns="http://www.w3.org/2000/svg">
<rect width="84" height="84" rx="8" fill="#F9FDFD"/>
<path d="M17.176 46.88V43.568L24.76 32.72H29.344V43.328H31.312V46.88H29.344V50H25.24V46.88H17.176ZM25.528 37.232L21.496 43.328H25.528V37.232ZM33.1782 46.88V43.568L40.7622 32.72H45.3462V43.328H47.3142V46.88H45.3462V50H41.2422V46.88H33.1782ZM41.5302 37.232L37.4982 43.328H41.5302V37.232ZM49.1804 46.88V43.568L56.7644 32.72H61.3484V43.328H63.3164V46.88H61.3484V50H57.2444V46.88H49.1804ZM57.5324 37.232L53.5004 43.328H57.5324V37.232Z" fill="#01B763"/>
</svg>
